# xmcd
#
# Track frame offsets: 
#        150
#        16388
#        30506
#        49626
#        66313
#        80774
#        94994
#        108848
#        123065
#        137477
#
# Disc length: 1994 seconds
#
# Revision: 0
# Processed by: cddbd v1.5.2PL0 Copyright (c) Steve Scherf et al.
# Submitted via: ExactAudioCopy v0.95b4
#
DISCID=7a07c80a
DTITLE=Various Artist - Best of Soul R&B Disc2
DYEAR=2007
DGENRE=R&B
TTITLE0=Kool and The Gang-Joanna
TTITLE1=Ben E. King-Spanish Harlem
TTITLE2=The Stylistics-Betcha By Golly Wow
TTITLE3=The Marvelettes-Don't Mess With Bill
TTITLE4=Harold Melvin and The Blue Notes-Bad Luck
TTITLE5=The Miracles-You've Really Got a Hold On Me
TTITLE6=Freda Payne-Bands of Gold
TTITLE7=Wilson Pickett-It's Too Late
TTITLE8=The Platters-Harbor Lights
TTITLE9=Lloyd Price-I'm Going To Get Married
EXTD=
EXTT0=
EXTT1=
EXTT2=
EXTT3=
EXTT4=
EXTT5=
EXTT6=
EXTT7=
EXTT8=
EXTT9=
PLAYORDER=
